<?xml version="1.0" standalone="no"?>
<!DOCTYPE svg PUBLIC "-//W3C//DTD SVG 20010904//EN"
 "http://www.w3.org/TR/2001/REC-SVG-20010904/DTD/svg10.dtd">
<svg version="1.0" xmlns="http://www.w3.org/2000/svg"
 width="500.000000pt" height="500.000000pt" viewBox="0 0 500.000000 500.000000"
 preserveAspectRatio="xMidYMid meet">
<metadata>
Created by potrace 1.16, written by Peter Selinger 2001-2019
</metadata>
<g transform="translate(0.000000,500.000000) scale(0.100000,-0.100000)"
fill="#000000" stroke="none">
<path d="M2474 3592 c-39 -29 -161 -82 -234 -101 -41 -10 -110 -19 -152 -20
-88 -2 -262 30 -319 59 -22 12 -40 16 -44 10 -6 -9 27 -26 98 -49 l39 -13 -26
-27 c-14 -15 -26 -33 -26 -40 0 -7 -4 -10 -8 -7 -5 3 -24 -11 -43 -32 l-34
-37 37 34 36 33 4 -173 c4 -221 3 -229 -30 -229 l-25 0 27 25 c14 13 26 27 26
31 0 5 -16 -7 -35 -26 -19 -19 -35 -36 -35 -40 0 -3 20 -4 45 -2 l45 4 1 97
c2 165 8 303 13 308 2 2 24 -1 47 -8 62 -18 320 -18 384 0 28 7 92 32 143 54
l93 39 77 -35 c133 -60 189 -72 352 -71 82 0 164 6 189 13 23 7 46 9 50 6 3
-4 5 -96 4 -206 0 -109 2 -200 5 -200 33 -7 92 -5 92 2 0 5 -18 9 -39 9 l-39
0 0 225 c1 195 -2 228 -16 244 -15 17 -14 18 21 30 21 7 44 15 51 17 7 3 12
-2 13 -13 0 -14 2 -13 10 5 15 38 3 41 -58 17 -142 -57 -352 -68 -488 -25 -38
12 -106 41 -151 64 -73 39 -83 42 -100 28z m61 -27 c39 -29 185 -91 240 -100
22 -4 48 -14 58 -23 11 -9 17 -11 17 -4 0 7 8 12 17 12 13 0 14 -3 5 -12 -9
-9 -8 -16 5 -30 15 -17 15 -18 -5 -18 -12 0 -22 5 -22 11 0 8 -4 9 -13 0 -11
-8 -33 -6 -88 9 -41 11 -89 24 -107 29 -54 15 -64 28 -45 59 l17 27 -26 -24
c-26 -23 -27 -23 -57 -5 -27 16 -35 17 -53 5 -18 -11 -23 -10 -42 8 -20 21
-20 21 -1 35 11 8 29 21 40 30 26 20 23 20 60 -9z m-106 -59 l22 -24 -43 -20
c-50 -23 -166 -59 -220 -68 -28 -5 -38 -3 -38 7 0 10 -3 10 -12 1 -17 -17
-142 -15 -229 3 -40 9 -75 18 -78 20 -2 3 6 16 18 29 20 21 27 23 54 14 25 -7
144 -17 242 -20 6 0 19 3 30 8 19 7 19 7 2 -13 -17 -19 -17 -21 0 -34 16 -12
17 -12 6 2 -17 21 7 43 63 58 23 6 66 22 95 36 67 30 61 30 88 1z m745 -48
c20 -28 15 -31 -86 -52 -138 -28 -220 -18 -203 26 4 11 30 17 93 21 48 4 101
11 117 16 48 15 63 13 79 -11z"/>
<path d="M1824 2389 c-5 -9 53 -111 114 -199 115 -166 305 -320 476 -384 85
-32 90 -32 173 1 230 91 449 299 574 546 10 17 15 35 13 38 -2 3 -23 6 -48 7
-50 2 -41 11 -127 -121 -68 -104 -146 -187 -244 -260 -80 -60 -224 -137 -256
-137 -33 0 -215 99 -280 153 -89 74 -178 175 -241 276 l-53 83 -48 2 c-27 1
-50 -1 -53 -5z m40 -21 c-6 -10 -4 -10 7 0 24 23 45 13 68 -33 12 -25 33 -58
45 -73 43 -51 50 -71 30 -93 -9 -10 -20 -19 -23 -19 -12 0 -141 206 -141 226
0 2 5 4 11 4 5 0 7 -6 3 -12z m230 -243 c46 -54 177 -165 194 -165 4 0 23 -11
42 -25 18 -13 64 -36 102 -51 68 -26 70 -26 107 -9 38 17 38 16 65 -9 l28 -25
-39 -17 c-21 -9 -63 -17 -93 -17 -46 -1 -70 7 -146 45 -50 26 -104 57 -120 71
-16 13 -37 28 -46 33 -18 10 -150 135 -177 168 -12 14 -11 19 4 36 10 11 21
20 25 20 3 0 28 -25 54 -55z m732 -126 c18 -21 18 -22 0 -33 -10 -6 -35 -24
-55 -40 -20 -15 -58 -39 -84 -53 -47 -23 -50 -23 -68 -7 -10 9 -19 20 -19 23
0 3 33 26 74 49 41 24 82 52 92 63 22 25 36 24 60 -2z"/>
</g>
</svg>
